<svg width="100" height="101" viewBox="0 0 100 101" fill="none" xmlns="http://www.w3.org/2000/svg">
<path d="M0 7.17369C0 3.21853 3.30844 0.0103123 7.38981 0.0103123H92.6102C96.6914 0.0103123 100 3.21853 100 7.17369V92.8469C100 96.8034 96.6914 100.01 92.6102 100.01H7.38981C3.30844 100.01 0 96.8034 0 92.8469V7.17369Z" fill="#306998"/>
<path d="M46.6096 72.5327C44.1238 72.5327 41.8723 71.8935 39.8553 70.6151C37.8525 69.3224 36.2615 67.4261 35.0826 64.9261C33.9178 62.4119 33.3354 59.3295 33.3354 55.679C33.3354 51.929 33.9391 48.8111 35.1465 46.3253C36.3539 43.8253 37.959 41.9574 39.9618 40.7216C41.9789 39.4716 44.1877 38.8466 46.5882 38.8466C48.4206 38.8466 49.9476 39.1591 51.1692 39.7841C52.405 40.3949 53.3993 41.1619 54.1522 42.0852C54.9192 42.9943 55.5016 43.8892 55.8993 44.7699H56.1763V28.3636H65.2317V72H56.2828V66.7585H55.8993C55.4732 67.6676 54.8695 68.5696 54.0882 69.4645C53.3212 70.3452 52.3198 71.0767 51.084 71.6591C49.8624 72.2415 48.3709 72.5327 46.6096 72.5327ZM49.486 65.3097C50.949 65.3097 52.1848 64.9119 53.1934 64.1165C54.2161 63.3068 54.9973 62.1776 55.5371 60.7287C56.0911 59.2798 56.3681 57.5824 56.3681 55.6364C56.3681 53.6903 56.0982 52 55.5584 50.5653C55.0186 49.1307 54.2374 48.0227 53.2147 47.2415C52.1919 46.4602 50.949 46.0696 49.486 46.0696C47.9945 46.0696 46.7374 46.4744 45.7147 47.2841C44.6919 48.0937 43.9178 49.2159 43.3922 50.6506C42.8667 52.0852 42.6039 53.7472 42.6039 55.6364C42.6039 57.5398 42.8667 59.223 43.3922 60.6861C43.932 62.1349 44.7061 63.2713 45.7147 64.0952C46.7374 64.9048 47.9945 65.3097 49.486 65.3097Z" fill="white"/>
</svg>
